<svg width="40" height="40" fill="none" xmlns="http://www.w3.org/2000/svg">
  <path fill-rule="evenodd" clip-rule="evenodd"
        d="M4.63 0a2.963 2.963 0 0 0-2.963 2.963V33.58a2.963 2.963 0 0 0 2.963 2.963h12.346v1.482c0 1.09.884 1.975 1.975 1.975h16.79c1.091 0 1.975-.884 1.975-1.975V8.395c0-1.09-.884-1.975-1.975-1.975H24.383V2.963A2.963 2.963 0 0 0 21.42 0H4.63Zm25.679 34.568h-5.926v3.457h5.926v-3.457Zm-11.358 0h3.457v3.457H18.95v-3.457Zm13.333 3.457v-3.457h3.457v3.457h-3.457Zm3.457-29.63v24.198h-16.79V8.395h16.79ZM16.976 30.617v3.951H9.568v-3.95h7.408Zm0-12.971v10.996H3.642V2.963c0-.546.442-.988.988-.988h16.79c.545 0 .988.442.988.988V6.42H18.95c-.508 0-.971.192-1.321.507a.986.986 0 0 0-.859.276l-3.746 3.746-3.746-3.746A.988.988 0 1 0 7.882 8.6l3.746 3.746-3.746 3.746a.988.988 0 1 0 1.397 1.396l3.746-3.746 3.746 3.746a.987.987 0 0 0 .205.158Zm-2.554-5.3 2.554-2.554v5.107l-2.554-2.553Zm-6.83 18.271h-3.95v2.963c0 .546.442.988.988.988h2.963v-3.95Zm24.198-12.84a4.444 4.444 0 1 1-8.888 0 4.444 4.444 0 0 1 8.888 0Zm1.976 0a6.42 6.42 0 1 1-12.84 0 6.42 6.42 0 0 1 12.84 0Z"
        fill="#FC6767"/>
</svg>
