<svg width="40" height="40" fill="none" xmlns="http://www.w3.org/2000/svg">
  <path fill-rule="evenodd" clip-rule="evenodd"
        d="M26.286 32.313c1.97-3.002 3.298-7.346 3.298-12.313 0-4.967-1.328-9.31-3.298-12.313-1.989-3.031-4.356-4.354-6.494-4.354s-4.505 1.323-6.494 4.354C11.328 10.689 10 15.033 10 20c0 4.967 1.328 9.31 3.298 12.313 1.989 3.031 4.356 4.354 6.494 4.354s4.505-1.323 6.494-4.354ZM19.792 40c7.249 0 13.125-8.954 13.125-20S27.041 0 19.792 0 6.667 8.954 6.667 20s5.876 20 13.125 20Z"
        fill="#FC6767"/>
  <path
    d="M13.334 26.666h2.44l1.36-4.053h5.733l1.35 4.053h2.45l-5.41-15h-2.513l-5.41 15Zm6.573-12.37h.177l2.16 6.445h-4.486l2.15-6.445Z"
    fill="#FC6767"/>
</svg>
