<svg width="40" height="40" fill="none" xmlns="http://www.w3.org/2000/svg">
  <path
    d="M4.483 26.384c2.791 0 4.484-2.188 4.484-5.688v-.016c0-3.5-1.693-5.68-4.484-5.68C1.693 15 0 17.18 0 20.68v.016c0 3.5 1.693 5.688 4.483 5.688Zm0-1.845c-1.372 0-2.157-1.426-2.157-3.843v-.016c0-2.417.785-3.835 2.157-3.835 1.373 0 2.158 1.418 2.158 3.835v.016c0 2.417-.785 3.843-2.158 3.843ZM13.061 26.193h2.28V15.191h-2.287l-2.844 1.975v2.043l2.806-1.906h.045v8.89ZM18.917 19.209c.686 0 1.235-.541 1.235-1.235a1.23 1.23 0 0 0-1.235-1.236c-.694 0-1.235.55-1.235 1.236a1.22 1.22 0 0 0 1.235 1.235Zm0 5.429a1.23 1.23 0 0 0 1.235-1.235c0-.694-.549-1.236-1.235-1.236a1.22 1.22 0 0 0-1.235 1.236c0 .686.541 1.235 1.235 1.235ZM25.627 26.384c2.57 0 4.278-1.327 4.278-3.294v-.015c0-1.495-1.068-2.44-2.7-2.593v-.046c1.29-.266 2.296-1.159 2.296-2.53v-.016c0-1.731-1.525-2.89-3.897-2.89-2.31 0-3.858 1.25-4.01 3.157l-.008.091h2.112l.008-.068c.091-.854.823-1.411 1.898-1.411 1.083 0 1.716.534 1.716 1.426v.015c0 .892-.747 1.502-1.899 1.502h-1.227v1.64h1.258c1.326 0 2.112.579 2.112 1.631v.015c0 .9-.763 1.533-1.945 1.533-1.189 0-1.967-.587-2.066-1.372l-.015-.084h-2.196l.008.099c.152 1.898 1.784 3.21 4.277 3.21ZM35.76 26.384c2.448 0 4.24-1.601 4.24-3.85v-.016c0-2.059-1.456-3.568-3.584-3.568-1.486 0-2.57.747-3.004 1.769h-.046c0-.115.008-.267.016-.42.084-1.944.785-3.477 2.394-3.477.9 0 1.51.45 1.784 1.114l.023.068h2.272l-.015-.076c-.328-1.7-1.93-2.928-4.057-2.928-2.867 0-4.613 2.166-4.613 5.772v.015c0 3.729 1.937 5.597 4.59 5.597Zm-2.043-3.797v-.015c0-1.121.885-1.922 2.036-1.922 1.144 0 2.005.808 2.005 1.952v.015c0 1.083-.907 1.937-2.028 1.937-1.128 0-2.013-.862-2.013-1.967Z"
    fill="#FC6767"/>
</svg>
